<?xml version="1.0" encoding="utf-8"?>
<svg viewBox="29.127 15.919 468.073 181.985" xmlns="http://www.w3.org/2000/svg">
  <g transform="matrix(0.10000000149011612, 0, 0, -0.10000000149011612, 0, 204)" fill="#000000" stroke="none">
    <path d="M 1083 1794 C 1075 1790 1070 1768 1070 1734 L 1070 1680 L 942 1680 C 791 1680 742 1667 676 1609 C 621 1560 594 1518 581 1460 C 572 1419 573 1417 586 1435 C 618 1479 677 1533 715 1553 C 751 1573 773 1575 963 1578 C 1138 1581 1170 1584 1170 1597 C 1170 1620 1183 1611 1270 1526 L 1351 1447 L 1263 1364 C 1191 1298 1174 1286 1172 1302 C 1169 1321 1159 1321 872 1318 C 587 1315 573 1314 524 1292 C 401 1236 342 1113 370 971 C 381 911 418 828 449 790 L 470 765 L 454 810 C 433 872 425 1005 439 1058 C 456 1119 510 1175 576 1200 C 625 1218 654 1220 850 1220 L 1070 1220 L 1070 1172 C 1070 1119 1082 1100 1117 1100 C 1151 1100 1480 1416 1480 1450 C 1480 1470 1442 1510 1309 1635 C 1149 1785 1116 1808 1083 1794 Z" style="fill: rgb(34, 197, 94);"/>
    <path d="M 1410 1681 C 1387 1674 1388 1673 1425 1667 C 1479 1657 1573 1618 1621 1584 C 1643 1569 1673 1537 1687 1513 C 1709 1475 1712 1461 1708 1397 C 1705 1326 1703 1321 1596 1133 C 1537 1027 1486 940 1484 940 C 1482 940 1462 950 1439 962 C 1409 977 1393 981 1382 973 C 1343 949 1344 937 1404 703 C 1436 578 1466 469 1472 463 C 1478 456 1490 450 1498 450 C 1507 450 1613 480 1733 517 C 1905 570 1955 589 1967 607 C 1987 638 1976 663 1934 683 C 1915 693 1900 706 1902 713 C 1904 719 1932 775 1965 835 C 2022 942 2024 947 2024 1020 C 2025 1111 1998 1178 1939 1236 C 1895 1279 1891 1276 1920 1220 C 1947 1168 1956 1074 1940 1025 C 1933 1005 1887 916 1838 829 C 1768 706 1750 667 1759 656 C 1768 645 1751 637 1671 611 C 1617 594 1566 580 1558 580 C 1548 580 1537 610 1521 675 C 1508 727 1496 778 1493 789 C 1489 804 1493 807 1512 804 C 1533 800 1547 821 1660 1022 C 1800 1271 1819 1319 1820 1406 C 1820 1521 1750 1612 1622 1661 C 1562 1684 1452 1694 1410 1681 Z" style="fill: rgb(34, 197, 94);"/>
    <path d="M 601 938 C 597 925 571 817 545 696 C 495 472 494 460 533 436 C 547 427 560 430 591 448 C 613 461 633 470 635 468 C 636 466 666 419 699 363 C 760 263 799 222 870 184 C 915 160 1062 158 1100 180 C 1124 194 1123 195 1062 202 C 985 210 906 252 870 301 C 856 321 806 401 759 479 C 693 591 671 620 657 616 C 644 613 641 616 644 628 C 649 643 690 831 690 836 C 690 838 720 830 758 820 C 795 810 844 797 868 790 C 904 781 910 776 899 764 C 890 752 912 709 1021 527 C 1167 283 1223 214 1302 180 C 1432 124 1614 202 1692 347 C 1741 439 1736 446 1670 381 C 1634 346 1582 308 1545 289 C 1489 262 1473 258 1422 262 C 1374 265 1353 273 1314 301 C 1273 330 1247 366 1152 525 C 1051 693 1040 716 1055 725 C 1124 766 1140 807 1097 835 C 1068 854 679 960 639 960 C 618 960 607 954 601 938 Z" style="fill: rgb(34, 197, 94);"/>
    <text style="fill: rgb(34, 197, 94); font-family: Arial, sans-serif; font-size: 610px; font-weight: 700; white-space: pre;" transform="matrix(1, 0, 0, -1, 0, 0)" x="2142.46" y="-795.062">I-Recycle</text>
  </g>
</svg>